<mxfile host="65bd71144e">
    <diagram id="eFmuAsX5H_6gJh-Vp0RW" name="Page-1">
        <mxGraphModel dx="1314" dy="773" grid="1" gridSize="10" guides="1" tooltips="1" connect="1" arrows="1" fold="1" page="1" pageScale="1" pageWidth="827" pageHeight="1169" math="0" shadow="0">
            <root>
                <mxCell id="0"/>
                <mxCell id="1" parent="0"/>
                <mxCell id="2" value="FunctionTypeDrawer" style="rounded=1;whiteSpace=wrap;html=1;" vertex="1" parent="1">
                    <mxGeometry x="354" y="50" width="120" height="60" as="geometry"/>
                </mxCell>
                <mxCell id="3" value="FunctionTypeMenu" style="rounded=1;whiteSpace=wrap;html=1;" vertex="1" parent="1">
                    <mxGeometry x="354" y="170" width="120" height="60" as="geometry"/>
                </mxCell>
                <mxCell id="4" value="TypeTabs" style="rounded=1;whiteSpace=wrap;html=1;" vertex="1" parent="1">
                    <mxGeometry x="114" y="310" width="80" height="40" as="geometry"/>
                </mxCell>
                <mxCell id="5" value="RackList" style="rounded=1;whiteSpace=wrap;html=1;" vertex="1" parent="1">
                    <mxGeometry x="244" y="310" width="80" height="40" as="geometry"/>
                </mxCell>
                <mxCell id="6" value="RackItem" style="rounded=1;whiteSpace=wrap;html=1;" vertex="1" parent="1">
                    <mxGeometry x="244" y="410" width="80" height="40" as="geometry"/>
                </mxCell>
                <mxCell id="7" value="AddBtn" style="rounded=1;whiteSpace=wrap;html=1;" vertex="1" parent="1">
                    <mxGeometry x="374" y="310" width="80" height="40" as="geometry"/>
                </mxCell>
                <mxCell id="8" value="RackForm" style="rounded=1;whiteSpace=wrap;html=1;" vertex="1" parent="1">
                    <mxGeometry x="504" y="310" width="80" height="40" as="geometry"/>
                </mxCell>
                <mxCell id="9" value="ChargerList" style="rounded=1;whiteSpace=wrap;html=1;" vertex="1" parent="1">
                    <mxGeometry x="720" y="310" width="80" height="40" as="geometry"/>
                </mxCell>
                <mxCell id="10" value="ChargerItem" style="rounded=1;whiteSpace=wrap;html=1;" vertex="1" parent="1">
                    <mxGeometry x="720" y="410" width="80" height="40" as="geometry"/>
                </mxCell>
                <mxCell id="11" value="&lt;h1&gt;&lt;font style=&quot;font-size: 18px;&quot;&gt;State&lt;/font&gt;&lt;/h1&gt;&lt;p&gt;- isMenuOpen (boolean)&lt;/p&gt;" style="text;html=1;strokeColor=none;fillColor=none;spacing=5;spacingTop=-20;whiteSpace=wrap;overflow=hidden;rounded=0;" vertex="1" parent="1">
                    <mxGeometry x="490" y="30" width="160" height="80" as="geometry"/>
                </mxCell>
                <mxCell id="12" value="&lt;h1&gt;&lt;font style=&quot;font-size: 18px;&quot;&gt;State&lt;/font&gt;&lt;/h1&gt;&lt;p&gt;- type (RACK | CHARGER)&lt;/p&gt;&lt;p&gt;&lt;span style=&quot;background-color: initial;&quot;&gt;- isRackFormValid (boolean)&lt;/span&gt;&lt;br&gt;&lt;/p&gt;&lt;p&gt;&lt;span style=&quot;background-color: initial;&quot;&gt;- functionTypes (data from BE)&lt;/span&gt;&lt;/p&gt;" style="text;html=1;strokeColor=none;fillColor=none;spacing=5;spacingTop=-20;whiteSpace=wrap;overflow=hidden;rounded=0;" vertex="1" parent="1">
                    <mxGeometry x="490" y="130" width="200" height="130" as="geometry"/>
                </mxCell>
                <mxCell id="13" value="&lt;h1&gt;&lt;font style=&quot;font-size: 18px;&quot;&gt;Global State&lt;/font&gt;&lt;/h1&gt;&lt;p&gt;- isShowRackDiagram (boolean)&lt;/p&gt;&lt;p&gt;- isEditRack (boolean)&lt;/p&gt;&lt;div&gt;&lt;br&gt;&lt;/div&gt;" style="text;html=1;strokeColor=none;fillColor=none;spacing=5;spacingTop=-20;whiteSpace=wrap;overflow=hidden;rounded=0;" vertex="1" parent="1">
                    <mxGeometry x="50" y="20" width="210" height="110" as="geometry"/>
                </mxCell>
                <mxCell id="19" value="&lt;h1&gt;&lt;font style=&quot;font-size: 18px;&quot;&gt;State&lt;/font&gt;&lt;/h1&gt;&lt;p&gt;- isOuterEqualBorder (boolean)&lt;/p&gt;" style="text;html=1;strokeColor=none;fillColor=none;spacing=5;spacingTop=-20;whiteSpace=wrap;overflow=hidden;rounded=0;" vertex="1" parent="1">
                    <mxGeometry x="590" y="270" width="130" height="80" as="geometry"/>
                </mxCell>
            </root>
        </mxGraphModel>
    </diagram>
</mxfile>